<?xml version="1.0" standalone="no"?>
<svg height="100%" width="100%" id="svg" viewBox="0 0 1440 700" xmlns="http://www.w3.org/2000/svg" class="transition duration-300 ease-in-out delay-150"><defs><linearGradient id="gradient"><stop offset="5%" stop-color="#002bdcff"></stop><stop offset="95%" stop-color="#0693e3ff"></stop></linearGradient></defs><path d="M 0,700 C 0,700 0,350 0,350 C 64.94950188938509,407.81518378564067 129.89900377877018,465.6303675712814 203,433 C 276.1009962212298,400.3696324287186 357.3534867743043,277.29371350051525 425,228 C 492.6465132256957,178.70628649948475 546.6870491240123,203.19477842665754 605,238 C 663.3129508759877,272.80522157334246 725.8983167296462,317.92717279285466 797,351 C 868.1016832703538,384.07282720714534 947.7196839574028,405.09653040192376 1021,400 C 1094.2803160425972,394.90346959807624 1161.222947440742,363.68670559945036 1230,351 C 1298.777052559258,338.31329440054964 1369.3885262796289,344.15664720027485 1440,350 C 1440,350 1440,700 1440,700 Z" stroke="none" stroke-width="0" fill="url(#gradient)" class="transition-all duration-300 ease-in-out delay-150" transform="rotate(-180 720 350)"></path></svg>